<svg width="25" height="33" viewBox="0 0 25 33" fill="none" xmlns="http://www.w3.org/2000/svg">
<path d="M23.16 24.08C23.5067 24.3733 23.7333 24.96 23.84 25.84C23.9733 26.6933 23.9333 27.5867 23.72 28.52C23.56 29.2933 23.2667 30.04 22.84 30.76C22.4133 31.4533 21.8533 31.8667 21.16 32C20.8933 32.0533 20.28 32.08 19.32 32.08C18.36 32.1067 17.2267 32.1067 15.92 32.08C14.64 32.08 13.3333 32.0667 12 32.04C10.6933 32.04 9.52 32.04 8.48 32.04C7.46667 32.0667 6.74667 32.1067 6.32 32.16C5.22667 32.3467 4.10667 32.4133 2.96 32.36C1.84 32.3067 1.05333 32.1467 0.6 31.88C0.786667 31.5067 0.946667 30.9467 1.08 30.2C1.21333 29.4267 1.32 28.5867 1.4 27.68C1.48 26.7733 1.50667 25.9067 1.48 25.08L1.32 0.439999C1.61333 0.386666 2.12 0.373333 2.84 0.399999C3.58667 0.426665 4.37333 0.546666 5.2 0.759999C6.10667 0.973331 6.92 1.37333 7.64 1.96C8.36 2.54667 8.8 3.29333 8.96 4.2C9.01333 4.49333 9.05333 5.08 9.08 5.96C9.10667 6.81333 9.12 7.82667 9.12 9C9.14667 10.1733 9.14667 11.3733 9.12 12.6C9.12 13.8267 9.12 14.9733 9.12 16.04C9.12 17.1067 9.10667 17.9733 9.08 18.64C9.08 19.3067 9.08 19.64 9.08 19.64C9.05333 20.6533 9.16 21.5733 9.4 22.4C9.64 23.2 9.98667 23.8267 10.44 24.28C10.7867 24.6267 11.2133 24.8667 11.72 25C12.2267 25.1333 12.8533 25.2267 13.6 25.28C13.92 25.3067 14.4133 25.3067 15.08 25.28C15.7733 25.2533 16.5333 25.2133 17.36 25.16C18.1867 25.08 19 24.9867 19.8 24.88C20.6267 24.7733 21.3467 24.6533 21.96 24.52C22.5733 24.3867 22.9733 24.24 23.16 24.08Z" fill="url(#paint0_linear_20_56)"/>
<defs>
<linearGradient id="paint0_linear_20_56" x1="-1" y1="11.3333" x2="20.0056" y2="11.2383" gradientUnits="userSpaceOnUse">
<stop stop-color="#BF97F7"/>
<stop offset="1" stop-color="#E87483"/>
</linearGradient>
</defs>
</svg>
